<svg width="500" height="500" viewBox="0 0 500 500" fill="none" xmlns="http://www.w3.org/2000/svg">
<path d="M286.5 221.7C277.8 198.1 234 201.6 234 237.3C234 255.1 247.4 278.8 286.5 303C325.6 278.9 339 255.2 339 237.3C339 201.8 295.2 197.9 286.5 221.7Z" fill="#EC7777"/>
<path d="M459.8 427.3C451.8 435.8 443 443.6 433.7 450.9L426.6 456.2C424.2 457.9 421.7 459.5 419.3 461.2C416.9 462.9 414.3 464.4 411.8 465.9L408 468.2C406.7 469 405.4 469.6 404.1 470.4C393.8 476.3 382.8 481.1 371.6 485.2C366 487.4 360.3 489 354.6 490.8C348.8 492.3 343 493.9 337.1 495.1L332.7 496C331.2 496.3 329.7 496.5 328.3 496.7C325.3 497.1 322.4 497.6 319.4 498L310.4 498.9L308.2 499.1C307.4 499.2 306.7 499.2 305.9 499.2L301.4 499.5C295.4 500 289.3 499.8 283.3 499.9C280.3 499.8 277.3 499.6 274.2 499.5C272.7 499.4 271.2 499.4 269.7 499.3L265.2 498.9C253.1 498 241.1 495.7 229.3 492.8C226.4 492 223.4 491.3 220.5 490.5L211.8 487.8C208.9 486.9 206 485.8 203.2 484.8C200.3 483.7 197.5 482.7 194.7 481.5L186.3 477.9L178 473.9C175.2 472.6 172.6 471.1 169.9 469.6C167.2 468.1 164.5 466.7 161.9 465.1L154.1 460.3L146.5 455.1C143.9 453.4 141.5 451.5 139.1 449.7C136.7 447.8 134.2 446 131.9 444L124.9 438.1L118.1 431.9C115.8 429.9 113.7 427.6 111.6 425.4C109.5 423.2 107.3 421 105.3 418.7C103.3 416.4 101.2 414.1 99.2 411.8L93.4 404.6C91.4 402.2 89.7 399.7 87.9 397.2L85.2 393.5C84.3 392.3 83.5 390.9 82.6 389.7C80.9 387.1 79.2 384.6 77.5 382L72.8 374L71.6 372C71.2 371.3 70.9 370.6 70.5 370L68.4 365.9C67 363.2 65.5 360.4 64.3 357.6C63 354.8 61.7 352 60.4 349.2L56.9 340.6C55.7 337.8 54.8 334.8 53.7 331.9C52.7 329 51.6 326.1 50.8 323.1L48.2 314.2L46.1 305.2C45.8 303.7 45.4 302.2 45.1 300.7L44.3 296.1L43.5 291.5L43.1 289.2C43 288.4 42.9 287.7 42.8 286.9L41.6 277.7C41.4 276.2 41.3 274.6 41.2 273.1L40.8 268.5L40.4 263.9C40.3 262.4 40.3 260.8 40.2 259.3L40 250L40.3 240.7C40.4 239.2 40.4 237.6 40.5 236.1L40.9 231.5L41.3 226.9C41.4 225.4 41.5 223.8 41.7 222.3L42.9 213.1C43 212.3 43.1 211.6 43.2 210.8L43.6 208.5L44.4 203.9L45.2 199.3C45.5 197.8 45.9 196.3 46.2 194.8L48.3 185.8L50.9 176.9C51.7 173.9 52.8 171 53.8 168.1C54.8 165.2 55.7 162.2 57 159.4L60.5 150.8C61.8 148 63.1 145.2 64.4 142.4C69.7 131.3 75.6 120.4 82.6 110.3C96 89.9 112.7 71.5 131.7 56C134 54 136.5 52.2 138.9 50.3C141.3 48.5 143.7 46.5 146.3 44.9L153.9 39.7C156.5 38.1 159.1 36.5 161.7 34.9C164.3 33.3 167 31.9 169.7 30.4C172.4 28.9 175 27.4 177.8 26.1L186 22.1L194.4 18.5C197.2 17.3 200.1 16.3 202.9 15.2C205.8 14.2 208.6 13 211.5 12.2L220.2 9.49998C223.1 8.69998 226.1 7.99998 229 7.19998C230.5 6.79998 231.9 6.39998 233.4 6.09998L237.9 5.19998L242.4 4.29998L244.6 3.79998C245.3 3.69998 246.1 3.59998 246.8 3.39998C249.8 2.89998 252.8 2.49998 255.8 1.99998C257.3 1.69998 258.8 1.69998 260.3 1.49998L264.8 1.09998L269.3 0.699976C270.8 0.599976 272.3 0.599976 273.8 0.499976C276.8 0.399976 279.8 0.199976 282.9 0.0999756C288.9 0.199976 295 -2.44081e-05 301 0.499976L305.5 0.799976C306.3 0.799976 307 0.899976 307.8 0.899976L310 1.09998L319 1.99998C322 2.39998 325 2.89998 327.9 3.29998C329.4 3.49998 330.9 3.69998 332.3 3.99998L336.7 4.89998C342.6 5.99998 348.4 7.69998 354.2 9.19998C359.9 11 365.7 12.7 371.2 14.8L375.4 16.3C376.8 16.8 378.2 17.4 379.5 18C382.2 19.2 385 20.3 387.7 21.5C390.4 22.8 393.1 24 395.7 25.4C397 26 398.3 26.8 399.6 27.5L403.5 29.6C404.8 30.3 406.1 31 407.4 31.8L411.2 34.1C413.7 35.7 416.3 37.1 418.7 38.8C421.2 40.5 423.6 42.1 426 43.8L433.1 49.1C442.4 56.4 451.2 64.2 459.2 72.7C459.5 73 459.5 73.6 459.2 73.9C458.9 74.2 458.4 74.2 458.1 73.9C449.5 66.1 440.4 58.9 430.9 52.3L423.7 47.5C421.2 46 418.7 44.5 416.3 43C413.8 41.5 411.3 40.2 408.7 38.8L404.9 36.7C403.6 36 402.3 35.4 401 34.8L397.1 32.9C395.8 32.3 394.5 31.6 393.2 31.1L385.2 27.7C382.5 26.6 379.8 25.7 377.1 24.6C375.7 24.1 374.4 23.6 373 23.1L368.9 21.8C363.4 19.9 357.8 18.6 352.2 17.1C346.5 15.9 340.9 14.6 335.2 13.7L330.9 13C329.5 12.7 328 12.6 326.6 12.4C323.7 12.1 320.9 11.7 318 11.4L309.3 10.8L307.1 10.6C306.4 10.6 305.7 10.6 304.9 10.5L300.6 10.4C294.8 10.1 289 10.5 283.3 10.6C280.4 10.8 277.5 11 274.7 11.2C273.3 11.3 271.8 11.4 270.4 11.6L266.1 12.2C254.6 13.5 243.3 15.9 232.1 18.9C229.3 19.7 226.5 20.5 223.8 21.3L215.6 24.1C212.8 25 210.2 26.1 207.5 27.2C204.8 28.3 202.1 29.3 199.5 30.5C178.3 39.8 158.5 52.2 140.9 67.1C123.3 82 107.8 99.5 95.2 118.9C93.7 121.3 92.1 123.8 90.5 126.2L86.2 133.7L85.1 135.6C84.7 136.2 84.4 136.9 84.1 137.5L82.1 141.4L80.1 145.3C79.4 146.6 78.9 147.9 78.3 149.2L74.8 157.1L71.6 165.2C70.5 167.9 69.7 170.6 68.7 173.4C67.8 176.1 66.8 178.9 66.1 181.7L63.7 190L61.8 198.4C61.5 199.8 61.1 201.2 60.9 202.6L60.1 206.9L59.3 211.2L58.9 213.3C58.8 214 58.7 214.7 58.6 215.4L57.5 224C57.3 225.4 57.2 226.9 57.1 228.3L56.8 232.6L56.5 236.9C56.4 238.3 56.4 239.8 56.4 241.2L56.2 249.9L56.4 258.6C56.5 260 56.4 261.5 56.5 262.9L56.8 267.2L57.1 271.5C57.2 272.9 57.3 274.4 57.5 275.8L58.6 284.4C58.7 285.1 58.8 285.8 58.9 286.5L59.3 288.6L60.1 292.9L60.9 297.2C61.1 298.6 61.5 300 61.8 301.4L63.8 309.8L66.2 318.1C72.8 340.2 82.6 361.4 95.2 380.7C107.8 400 123.3 417.5 140.9 432.5C158.5 447.4 178.3 459.8 199.5 469.1C202.1 470.4 204.8 471.3 207.5 472.4C210.2 473.4 212.8 474.6 215.6 475.5L223.8 478.3L232.1 480.7C243.3 483.7 254.6 486.1 266.1 487.4L270.4 488C271.8 488.2 273.3 488.2 274.7 488.4C277.6 488.6 280.5 488.9 283.3 489C289.1 489.1 294.9 489.5 300.6 489.2L304.9 489.1C305.6 489.1 306.3 489.1 307.1 489L309.3 488.8L318 488.2C320.9 487.9 323.7 487.5 326.6 487.2C328 487 329.5 486.9 330.9 486.6L335.2 485.9C340.9 485.1 346.6 483.7 352.2 482.5C357.8 481 363.4 479.6 368.9 477.8L373 476.5C374.4 476.1 375.7 475.5 377.1 475C379.8 474 382.5 473 385.2 471.9L393.2 468.5C394.5 468 395.8 467.3 397.1 466.7L401 464.8C402.3 464.2 403.6 463.6 404.9 462.9L408.7 460.8C411.2 459.4 413.8 458.1 416.3 456.6C418.8 455.1 421.3 453.6 423.7 452.1L430.9 447.3C440.4 440.7 449.5 433.5 458.1 425.7C458.4 425.4 459 425.4 459.3 425.8C460.2 426.4 460.2 426.9 459.8 427.3Z" fill="#EC7777"/>
<path d="M143.6 81.8C145.7 79.8 147.9 78.1 150.1 76.3C152.3 74.5 154.5 72.6 156.8 71C157.1 70.7 163.4 66.2 163.7 65.9C166.1 64.3 168.4 62.7 170.8 61.2C173.2 59.6 175.7 58.2 178.1 56.8C180.6 55.4 183 53.9 185.6 52.6C185.9 52.4 192.9 48.9 193.2 48.7C193.5 48.5 200.6 45.4 201 45.2C203.6 44 206.2 43 208.9 42C211.6 41 214.2 39.9 216.9 39C217.3 38.8 224.6 36.5 225 36.3C225.3 36.2 225.6 36.1 225.8 36.1C227.7 35.6 229.6 35 231.5 34.5C232.1 34.3 232.6 34.2 233.2 34C234.6 33.6 235.9 33.2 237.3 32.9L241.5 32L243.1 31.7L245.7 31.2L247.8 30.8C248.1 30.7 248.6 30.7 248.9 30.6C249.2 30.5 249.6 30.5 249.9 30.4C252.7 29.9 255.5 29.5 258.3 29.1C259.7 28.9 261.1 28.8 262.5 28.6C262.7 28.6 266.5 28.2 266.7 28.2C266.9 28.2 270.7 27.8 270.9 27.8C271.3 27.8 271.6 27.8 272 27.7C272.8 27.7 274.1 27.6 274.9 27.6C275 27.6 275.1 27.6 275.1 27.6C276 27.6 276.9 27.5 277.8 27.5C279.5 27.4 281.9 27.3 283.6 27.3C289 27.4 294.4 27.3 299.7 27.7C299.8 27.7 303.6 27.9 303.7 27.9C304.4 27.9 305 28 305.7 28C305.8 28 307.6 28.2 307.7 28.2C308 28.2 315.4 29 315.6 29.1C318.3 29.5 320.9 29.9 323.5 30.3C324.8 30.5 326.2 30.7 327.5 31C327.6 31 331.3 31.8 331.4 31.8C336.3 32.8 341.1 34.1 345.9 35.4C346.3 35.5 346.7 35.6 347.1 35.7C351.4 37.1 355.8 38.4 360.1 40C360.9 40.3 361.6 40.6 362.4 40.9C362.5 41 366 42.3 366.2 42.3C367.5 42.8 368.7 43.3 369.9 43.8C372.4 44.9 374.8 45.9 377.2 47C379.6 48.2 382 49.3 384.4 50.5C385.3 50.9 386.1 51.4 386.9 51.8C387.2 52 387.6 52.2 387.9 52.4C388 52.5 391.3 54.3 391.4 54.3C392.6 55 393.7 55.6 394.9 56.3C395 56.4 398.2 58.3 398.3 58.4C400.5 59.8 402.8 61.2 405 62.7C407.2 64.2 409.4 65.7 411.5 67.2C411.7 67.4 417.6 71.8 417.7 71.9C425.7 78.3 433.2 85.1 440.2 92.5C440.5 92.8 440.5 93.4 440.1 93.7C439.8 94 439.3 94 439 93.7C431.4 86.8 423.4 80.4 414.9 74.6C414.7 74.5 408.7 70.5 408.5 70.4C406.3 69.1 404.1 67.8 401.9 66.4C399.7 65 397.4 63.9 395.2 62.7C395.1 62.6 391.9 60.9 391.8 60.9C390.7 60.3 389.5 59.8 388.3 59.2C388.2 59.1 384.9 57.6 384.8 57.5C383.6 57 382.5 56.4 381.3 55.9C381.1 55.8 374.5 53 374.2 52.9C371.8 51.9 369.4 51.1 367 50.2C365.8 49.8 364.6 49.3 363.4 48.9C363.3 48.9 359.9 47.8 359.7 47.7C354.8 46.1 349.9 44.8 344.9 43.5C339.9 42.4 334.9 41.2 329.8 40.5C329.7 40.5 326.1 39.9 326 39.9C324.7 39.7 323.5 39.6 322.2 39.4C319.7 39.1 317.1 38.8 314.6 38.5C314.4 38.5 307.2 38 306.9 38C306.8 38 305 37.9 305 37.9C304.4 37.9 303.7 37.9 303.1 37.8C303 37.8 299.4 37.7 299.3 37.7C294.2 37.5 289.1 37.8 283.9 37.9C281.3 38.1 278.8 38.3 276.2 38.5C274.9 38.6 273.6 38.7 272.4 38.8C272.3 38.8 268.7 39.3 268.6 39.3C258.4 40.4 248.4 42.6 238.5 45.2C236 45.9 233.6 46.6 231.1 47.3C230.9 47.4 224.1 49.7 223.8 49.8C221.4 50.6 219 51.6 216.6 52.5C214.2 53.5 211.8 54.4 209.5 55.5C190.8 63.7 173.2 74.7 157.6 87.9C142 101.1 128.3 116.6 117.1 133.8C115.7 136 114.3 138.1 113 140.3C112.9 140.5 109.3 146.7 109.2 147C109.2 147.1 108.3 148.6 108.2 148.7C107.9 149.3 107.6 149.8 107.3 150.4C107.2 150.5 105.6 153.7 105.6 153.8C105.6 153.9 103.9 157.1 103.9 157.2C103.3 158.3 102.8 159.5 102.3 160.7C102.2 160.9 99.3 167.5 99.2 167.7C99.1 167.9 96.5 174.6 96.4 174.8C95.4 177.2 94.7 179.6 93.8 182C93 184.4 92.1 186.8 91.5 189.3L89.4 196.7L87.7 204.2C87.4 205.6 87 206.9 86.8 208.3C86.8 208.5 86.1 212.2 86.1 212.4C86.1 212.5 85.5 216.1 85.4 216.2C85.4 216.3 85.1 218 85.1 218.1C85 218.7 84.9 219.4 84.9 220C84.9 220.2 84 227.4 84 227.6C83.8 228.9 83.8 230.1 83.7 231.4C83.7 231.5 83.4 235.1 83.4 235.2C83.4 235.5 83.1 239.2 83.1 239.4C83 240.7 83 241.9 83 243.2C83 243.4 82.8 250.6 82.9 250.8C82.9 251 83.1 258.2 83.1 258.4C83.2 259.7 83.1 261 83.2 262.2C83.2 262.5 83.5 266.2 83.6 266.5C83.6 266.7 83.9 270.4 84 270.7C84.1 272.1 84.2 273.5 84.5 274.9L85.5 282.5C85.6 283.1 85.7 283.8 85.8 284.4L86.3 286.6C86.3 286.7 87 290.2 87 290.3C87 290.4 87.7 293.9 87.7 294C87.9 295.3 88.3 296.5 88.6 297.7C88.7 297.9 90.3 304.9 90.4 305.1C90.5 305.3 92.5 312.2 92.6 312.4C96.4 324.6 101.2 336.4 107.1 347.7C110.6 354.4 114.5 361 118.7 367.3C130 384.2 143.7 399.5 159.3 412.5C171.1 422.4 184.1 431 197.8 438.1C202.2 440.4 206.6 442.5 211.1 444.4C213.4 445.5 215.8 446.4 218.2 447.3C220.6 448.2 222.9 449.2 225.4 450C225.6 450.1 232.4 452.4 232.6 452.4C232.8 452.5 239.7 454.4 239.9 454.5C249.7 457.1 259.7 459.2 269.9 460.3C270 460.3 273.6 460.8 273.7 460.8C275 460.9 276.2 461 277.5 461.1C280 461.3 282.6 461.5 285.1 461.6C290.2 461.7 295.3 462 300.4 461.7C300.5 461.7 304.1 461.6 304.2 461.6C304.8 461.6 305.5 461.6 306.1 461.5C306.2 461.5 307.9 461.4 308 461.4C308.2 461.4 315.4 460.9 315.6 460.8C318.2 460.5 320.7 460.2 323.3 459.9C324.6 459.7 325.8 459.6 327.1 459.4C327.2 459.4 330.8 458.8 330.9 458.8C335.9 458 340.9 456.9 345.9 455.8C350.8 454.5 355.8 453.2 360.6 451.6C360.7 451.6 364.1 450.5 364.2 450.4C365.4 450 366.6 449.5 367.8 449.1C370.2 448.2 372.6 447.4 374.9 446.4C375.1 446.3 381.7 443.5 381.9 443.4C383.1 442.9 384.2 442.3 385.4 441.8C385.5 441.7 388.7 440.2 388.8 440.1C389.9 439.5 391.1 439 392.2 438.4C392.3 438.3 395.5 436.6 395.6 436.6C397.8 435.4 400.1 434.2 402.3 432.9C404.5 431.6 406.7 430.3 408.8 429C409 428.9 415 424.9 415.2 424.8C423.6 419 431.6 412.7 439.1 405.8C439.4 405.5 439.9 405.5 440.1 405.8C440.4 406 440.4 406.4 440.2 406.7C439.9 407.1 439.6 407.5 439.3 407.9C438.8 408.5 438.3 409.2 437.7 409.8C437.6 409.9 437.6 409.9 437.5 410C431.4 416.3 424.8 422.1 417.9 427.7C417.7 427.9 411.9 432.3 411.7 432.4C409.6 433.9 407.4 435.4 405.2 436.9C403 438.4 400.8 439.8 398.5 441.2C398.4 441.3 395.2 443.2 395.1 443.3C394 444 392.8 444.6 391.6 445.3C389.9 446.3 388.2 447.2 386.5 448.2C378.9 452.3 370.9 455.8 362.7 458.9C361.5 459.4 360.2 459.9 359 460.3C355.2 461.7 351.4 462.8 347.5 464.1C346.5 464.4 345.5 464.6 344.5 464.9C340.3 466 336.2 467.2 331.9 468C331.8 468 329.7 468.5 329.6 468.5C329.5 468.5 328 468.8 327.9 468.9C326.6 469.2 325.3 469.4 323.9 469.6C321.2 470 318.6 470.5 315.9 470.8C315.8 470.8 314.5 471 314.4 471C314.2 471 308.1 471.7 307.8 471.7C307.7 471.7 305.9 471.9 305.8 471.9C305.1 472 304.5 472 303.8 472C303.7 472 299.9 472.2 299.8 472.2C299.6 472.2 299.3 472.2 299.1 472.3C294 472.7 288.8 472.6 283.6 472.7C281.2 472.6 277.9 472.5 275.5 472.4C274.2 472.3 272.8 472.3 271.5 472.2L267.5 471.8C258.8 471.2 250.2 469.8 241.6 467.9C239.3 467.4 236.9 466.9 234.6 466.3C231.9 465.6 229.2 464.9 226.5 464.2C226.2 464.1 218.8 461.8 218.5 461.7C217.7 461.5 216.9 461.2 216.1 460.9C214.2 460.3 212.4 459.5 210.6 458.9C208 457.9 205.4 457 202.8 455.8C202.5 455.6 195.4 452.6 195.1 452.4C194.8 452.2 187.9 448.9 187.6 448.7C185.1 447.5 182.6 446.1 180.2 444.7C177.8 443.3 175.3 442 172.9 440.5C172.6 440.3 166.1 436.2 165.8 436C165.5 435.8 159.2 431.4 158.9 431.1C156.6 429.5 154.4 427.7 152.2 426C150 424.3 147.8 422.6 145.7 420.7C145.5 420.4 139.6 415.4 139.3 415.2C139.1 414.9 133.4 409.6 133.2 409.4C131.1 407.5 129.3 405.4 127.3 403.3C125.5 401.4 123.6 399.4 121.9 397.4C120.2 395.4 118.4 393.4 116.7 391.3C116.6 391.1 111.9 385.2 111.7 385C110 382.9 108.5 380.7 107 378.5C106.9 378.4 104.7 375.3 104.7 375.2C103.9 374.1 103.2 373 102.5 371.8C102.1 371.2 101.8 370.7 101.4 370.1C100.3 368.4 99.2 366.7 98.2 365C98.1 364.8 94.3 358.2 94.2 358C94.2 357.9 93.2 356.3 93.2 356.3C92.9 355.7 92.6 355.1 92.3 354.5C92.3 354.4 90.5 351 90.5 350.9C89.3 348.5 88 346.1 87 343.7C85.9 341.3 84.8 338.8 83.7 336.3C83.7 336.2 82.2 332.6 82.2 332.5C82.2 332.4 80.8 328.9 80.7 328.8C79.9 326.8 79.2 324.7 78.5 322.6C78.4 322.2 78.2 321.6 78 321.2C77.2 318.9 76.2 315.9 75.5 313.5L75.2 312.5C75.2 312.3 73.3 305.9 73.3 305.7C73.3 305.6 72.5 302.3 72.5 302.2C72.5 302.1 71.5 297.9 71.5 297.8C71.2 296.5 70.9 295.2 70.6 293.9C70.6 293.8 70.2 291.9 70.2 291.9C70.2 291.8 69.9 290 69.9 290C69.9 289.9 69.2 286.1 69.2 286C69.2 285.9 68.9 284.1 68.9 284C68.8 283.3 68.7 282.7 68.6 282C68.6 281.8 67.6 274.2 67.6 274C67.4 272.7 67.3 271.3 67.2 270C67.2 269.9 66.9 266.1 66.9 266C66.9 265.9 66.6 262.1 66.6 262C66.5 260.7 66.5 259.3 66.5 258C66.5 257.8 66.3 250.2 66.3 249.9C66.3 249.7 66.5 242.1 66.5 241.9C66.6 240.6 66.5 239.2 66.6 237.9C66.6 237.8 66.9 234 66.9 233.9C66.9 233.8 67.2 230 67.2 229.9C67.3 228.6 67.4 227.2 67.6 225.9C67.6 225.7 68.6 218.2 68.6 218C68.7 217.3 68.8 216.7 68.9 216C68.9 216 69.2 214.1 69.2 214C69.2 213.9 69.9 210.2 69.9 210.1C69.9 210 70.6 206.3 70.6 206.2C70.8 204.9 71.2 203.6 71.4 202.3C71.4 202.1 73.2 194.7 73.2 194.5C73.2 194.4 74.3 190.8 74.3 190.7C74.3 190.6 75.4 186.9 75.4 186.8C76.1 184.2 77 181.7 77.8 179.2C78.6 176.9 79.5 174 80.5 171.7L81.9 168C81.9 167.9 83.3 164.4 83.4 164.3C84.5 161.9 85.6 159.4 86.6 157C91.1 147.4 96.1 138 102 129.1C104.9 124.7 107.9 120.3 111.2 116.1C120.7 103.6 131.6 92 143.6 81.8Z" fill="#EC7777"/>
<path d="M155.6 107.6C157.5 105.7 159.4 104 161.4 102.2C163.4 100.4 165.3 98.7 167.4 97C167.9 96.4 173 92.6 173.6 92.1C175.7 90.5 177.9 89 180 87.5C182.1 86 184.4 84.6 186.6 83.2C188.8 81.8 191.1 80.4 193.4 79.1C194.1 78.6 199.7 75.7 200.3 75.3C201 74.8 206.7 72.3 207.4 71.8C209.8 70.6 212.2 69.6 214.7 68.6C217.1 67.6 219.6 66.6 222.1 65.7C222.8 65.4 228.8 63.4 229.6 63.1C229.9 63 230.1 62.9 230.4 62.9C232.1 62.4 233.9 61.9 235.7 61.4C236.2 61.3 236.7 61.1 237.2 61C238.5 60.7 239.7 60.3 241 60L244.9 59.1L246.4 58.8L248.8 58.3L250.7 57.9C250.9 57.9 251.5 57.7 251.7 57.7C252 57.6 252.3 57.6 252.6 57.5C255.2 57 257.8 56.6 260.4 56.3C261.7 56.1 263 56 264.3 55.8C264.7 55.7 267.8 55.4 268.2 55.4C268.6 55.4 271.7 55.1 272.1 55.1C272.4 55.1 272.8 55.1 273.1 55C273.7 55 275.2 54.9 275.8 54.9C275.9 54.9 275.9 54.9 276 54.9C276.8 54.9 277.7 54.8 278.5 54.8C279.7 54.7 282.6 54.7 283.9 54.6C288.6 54.7 293.3 54.6 298 55C298.3 55 301.3 55.2 301.6 55.2C302.2 55.2 302.8 55.3 303.4 55.3C303.5 55.3 305 55.5 305.2 55.5C305.7 55.6 311.6 56.2 312.1 56.3C314.4 56.6 316.7 57 319.1 57.4C320.3 57.6 321.5 57.8 322.6 58C322.8 58.1 325.7 58.7 326 58.7C330.3 59.6 334.6 60.8 338.8 62C339.1 62.1 339.5 62.2 339.8 62.3C343.6 63.6 347.5 64.7 351.2 66.2C351.9 66.5 352.6 66.7 353.2 67C353.5 67.1 356.3 68.2 356.5 68.3C357.6 68.7 358.7 69.2 359.8 69.7C362 70.7 364.2 71.6 366.3 72.6C368.4 73.6 370.5 74.7 372.6 75.8C373.4 76.2 374.1 76.6 374.8 77C375.1 77.2 375.4 77.3 375.7 77.5C375.9 77.7 378.5 79.1 378.8 79.3C379.8 79.9 380.8 80.5 381.8 81.1C382 81.3 384.6 82.8 384.8 83C386.8 84.3 388.8 85.5 390.7 86.9C392.6 88.3 394.5 89.6 396.4 91C396.8 91.3 401.4 94.9 401.8 95.2C408.5 100.7 414.8 106.5 420.6 112.8V112.9C420.9 113.2 420.9 113.8 420.5 114.1C420.2 114.4 419.7 114.4 419.4 114.1C412.8 108.1 405.8 102.5 398.4 97.5C398 97.2 393.2 94.1 392.8 93.8C390.9 92.6 389 91.5 387.1 90.3C385.2 89.1 383.2 88.1 381.2 87C381 86.9 378.5 85.5 378.2 85.4C377.2 84.9 376.2 84.4 375.2 83.9C375 83.8 372.4 82.6 372.2 82.5C371.2 82 370.2 81.5 369.2 81.1C368.7 80.9 363.5 78.7 363 78.5C360.9 77.7 358.8 76.9 356.7 76.1C355.6 75.7 354.6 75.3 353.5 75C353.3 74.9 350.5 74.1 350.3 74C346.1 72.6 341.7 71.5 337.4 70.4C333 69.4 328.6 68.4 324.2 67.8C324 67.8 321.1 67.3 320.9 67.3C319.8 67.1 318.7 67 317.6 66.9C315.4 66.6 313.2 66.4 311 66.1C310.5 66.1 304.8 65.6 304.3 65.6C304.2 65.6 302.8 65.5 302.6 65.5C302 65.5 301.5 65.5 300.9 65.4C300.7 65.4 297.8 65.3 297.6 65.3C293.1 65.1 288.7 65.3 284.2 65.5C282 65.6 279.8 65.8 277.5 66C276.4 66.1 275.3 66.2 274.2 66.3C274 66.3 271.1 66.7 270.9 66.7C262 67.7 253.3 69.5 244.7 71.9C242.6 72.5 240.4 73.1 238.3 73.8C237.8 73.9 232.4 75.8 232 75.9C229.9 76.6 227.8 77.5 225.7 78.3C223.6 79.1 221.5 79.9 219.4 80.9C203.1 88.1 187.8 97.6 174.2 109.1C160.6 120.6 148.6 134.2 138.9 149.1C137.7 151 136.5 152.8 135.3 154.7C135 155.1 132.2 160.1 132 160.5C131.9 160.6 131.2 161.8 131.2 162C130.9 162.5 130.7 163 130.4 163.5C130.3 163.7 129 166.3 128.9 166.5C128.8 166.7 127.5 169.3 127.4 169.5C126.9 170.5 126.5 171.5 126 172.5C125.8 172.9 123.5 178.1 123.3 178.6C123.1 179.1 121 184.4 120.9 184.8C120.1 186.9 119.4 189 118.7 191.1C118 193.2 117.2 195.3 116.7 197.5L114.9 203.9L113.4 210.4C113.1 211.7 112.8 213.1 112.6 214.4C112.5 214.9 112 217.9 111.9 218.4C111.9 218.6 111.4 221.4 111.3 221.7C111.3 221.8 111 223.2 111 223.3C110.9 223.8 110.9 224.4 110.8 225C110.7 225.5 110.1 231.1 110 231.6C109.9 232.7 109.8 233.8 109.7 234.9C109.7 235.1 109.5 238 109.5 238.2C109.5 238.7 109.3 241.8 109.3 242.4C109.2 243.5 109.3 244.6 109.2 245.7C109.2 246.2 109.1 251.9 109.1 252.3C109.1 252.8 109.3 258.5 109.3 258.9C109.3 260 109.4 261.1 109.4 262.2C109.5 262.7 109.7 265.9 109.8 266.4C109.9 266.9 110.2 270 110.2 270.5C110.4 271.9 110.5 273.2 110.7 274.5L111.7 281.1C111.8 281.5 111.9 282.3 112 282.7L112.5 285.1C112.6 285.3 113.1 288.1 113.2 288.3C113.3 288.5 113.8 291.3 113.9 291.5C114.1 292.6 114.4 293.6 114.7 294.7C114.9 295.1 116.2 300.6 116.4 301.1C116.6 301.5 118.2 307 118.3 307.4C121.7 317.9 126 328.1 131.3 337.8C134.4 343.6 137.8 349.2 141.5 354.6C151.4 369.1 163.4 382.2 177 393.3C187.3 401.7 198.5 409.1 210.4 415.1C214.2 417 218.1 418.8 222 420.5C224 421.4 226.1 422.2 228.1 422.9C230.2 423.7 232.2 424.5 234.3 425.1C234.7 425.2 240.1 427 240.6 427.1C241.1 427.2 246.5 428.8 247 428.9C255.5 431.1 264.2 432.8 272.9 433.7C273.1 433.7 275.9 434.1 276.2 434.1C277.3 434.2 278.4 434.3 279.5 434.3C281.7 434.4 283.9 434.6 286.1 434.7C290.5 434.8 294.9 435 299.3 434.7C299.5 434.7 302.4 434.6 302.6 434.6C303.1 434.6 303.7 434.6 304.2 434.5C304.3 434.5 305.7 434.4 305.8 434.4C306.3 434.4 311.9 433.9 312.4 433.9C314.6 433.7 316.9 433.4 319.1 433.1C320.2 432.9 321.3 432.8 322.4 432.6C322.6 432.6 325.4 432.1 325.7 432C330 431.3 334.3 430.3 338.6 429.3C342.8 428.2 347.1 427.1 351.3 425.6C351.5 425.5 354.2 424.7 354.4 424.6C355.4 424.3 356.5 423.8 357.5 423.5C359.6 422.7 361.6 422 363.7 421.1C364.1 420.9 369.3 418.7 369.8 418.5C370.8 418.1 371.8 417.6 372.8 417.1C373 417 375.6 415.8 375.8 415.7C376.8 415.2 377.8 414.8 378.8 414.2C379 414.1 381.5 412.7 381.7 412.6C383.6 411.5 385.6 410.5 387.5 409.4C389.4 408.3 391.3 407.1 393.2 406C393.6 405.8 398.3 402.6 398.7 402.4C406 397.4 412.9 391.9 419.4 386C419.7 385.8 420 385.7 420.3 385.9C420.5 386 420.6 386.3 420.5 386.5C420.3 386.8 420.2 387.1 420 387.5C419.7 388 419.3 388.6 418.8 389.2C418.8 389.2 418.7 389.3 418.6 389.4C413.4 394.9 407.8 400 401.9 404.9C401.6 405.2 397 408.7 396.6 409C394.7 410.4 392.8 411.7 390.9 413.1C389 414.5 387 415.7 385.1 417C384.9 417.2 382.4 418.7 382.1 418.9C381.1 419.5 380.1 420.1 379.1 420.7C377.6 421.6 376.1 422.4 374.6 423.3C367.9 427 360.9 430.2 353.7 433C352.6 433.4 351.5 433.9 350.4 434.3C347.1 435.5 343.7 436.6 340.3 437.7C339.4 438 338.5 438.2 337.6 438.5C333.9 439.5 330.2 440.5 326.5 441.3C326.3 441.3 324.7 441.7 324.5 441.7C324.4 441.7 323.2 442 323 442C321.8 442.3 320.7 442.4 319.5 442.6C317.2 443 314.8 443.4 312.5 443.7C312.4 443.7 311.3 443.8 311.2 443.9C310.7 444 305.9 444.5 305.4 444.6C305.3 444.6 303.8 444.8 303.6 444.8C303 444.9 302.4 444.9 301.8 444.9C301.5 444.9 298.5 445.1 298.2 445.1C298 445.1 297.8 445.1 297.6 445.1C293.1 445.5 288.5 445.4 283.9 445.5C282.1 445.4 278.6 445.3 276.8 445.3C275.6 445.2 274.4 445.2 273.2 445.2L269.7 444.9C261.8 444.4 253.9 443.1 246.2 441.4C244.1 440.9 241.9 440.5 239.8 439.9C237.3 439.3 234.9 438.6 232.5 437.9C231.8 437.7 225.9 435.8 225.2 435.6C224.5 435.4 223.8 435.1 223.1 434.9C221.4 434.3 219.8 433.7 218.1 433C215.7 432.1 213.4 431.2 211 430.1C210.4 429.8 204.7 427.3 204 427C203.4 426.7 197.8 423.9 197.2 423.6C194.9 422.5 192.7 421.2 190.5 419.9C188.3 418.6 186.1 417.4 184 416C183.4 415.6 178.2 412.2 177.6 411.8C177 411.3 172 407.8 171.4 407.3C169.3 405.8 167.4 404.2 165.4 402.6C163.4 401 161.4 399.4 159.6 397.6C159.1 397.1 154.4 393 153.9 392.4C153.4 391.8 148.9 387.5 148.5 387C146.7 385.2 145 383.3 143.3 381.4C141.8 379.7 140.2 378.1 138.8 376.3C137.3 374.6 135.9 372.8 134.4 371C134.2 370.6 130.5 365.9 130.3 365.6C128.9 363.8 127.7 361.9 126.4 360C126.3 359.8 124.6 357.4 124.5 357.2C123.8 356.3 123.3 355.3 122.7 354.3C122.4 353.8 122.1 353.3 121.8 352.8C120.9 351.4 120 349.9 119.1 348.4C118.9 348 115.9 342.8 115.8 342.4C115.8 342.3 115 341 115 340.9C114.7 340.4 114.5 339.9 114.2 339.4C114.1 339.2 112.8 336.5 112.7 336.3C111.7 334.3 110.7 332.2 109.8 330.1C108.9 328 108 325.9 107.1 323.8C107 323.6 105.9 320.8 105.8 320.6C105.7 320.4 104.7 317.6 104.6 317.4C103.9 315.7 103.3 313.9 102.7 312.1C102.6 311.8 102.4 311.2 102.3 310.9C101.7 309.1 100.7 306.1 100.3 304.3L100.1 303.5C100 303.1 98.6 298.1 98.5 297.7C98.5 297.5 97.9 294.9 97.8 294.7C97.8 294.5 97 291.2 97 291C96.8 289.9 96.5 288.8 96.3 287.6C96.3 287.5 96 286 96 285.9C96 285.8 95.7 284.4 95.7 284.2C95.7 284 95.1 281 95.1 280.8C95.1 280.7 94.8 279.2 94.8 279.1C94.7 278.5 94.6 278 94.6 277.4C94.6 277 93.8 271 93.8 270.6C93.6 269.5 93.6 268.3 93.5 267.2C93.5 267 93.3 264 93.2 263.8C93.2 263.6 93 260.6 93 260.4C92.9 259.3 92.9 258.1 92.9 257C92.9 256.6 92.7 250.6 92.7 250.1C92.7 249.7 92.9 243.8 92.9 243.4C92.9 242.3 92.9 241.2 93 240.1C93 239.9 93.2 236.9 93.2 236.8C93.2 236.6 93.4 233.6 93.5 233.5C93.6 232.4 93.7 231.3 93.8 230.2C93.8 229.8 94.6 223.9 94.6 223.5C94.7 222.9 94.7 222.4 94.8 221.8C94.8 221.7 95.1 220.2 95.1 220.1C95.1 219.9 95.6 217 95.7 216.8C95.7 216.6 96.2 213.7 96.3 213.5C96.5 212.4 96.8 211.3 97 210.2C97 209.8 98.4 204 98.5 203.7C98.5 203.5 99.3 200.7 99.4 200.5C99.4 200.3 100.2 197.4 100.3 197.3C100.9 195.1 101.6 193 102.3 190.9C102.9 189.2 103.7 186.3 104.5 184.6L105.7 181.5C105.8 181.3 106.8 178.5 106.9 178.4C107.8 176.3 108.7 174.3 109.5 172.3C113.2 164.2 117.2 156.2 122 148.7C124.4 144.9 126.8 141.2 129.5 137.6C136.8 126.4 145.7 116.5 155.6 107.6Z" fill="#EC7777"/>
<path d="M167.5 133.4C169.1 131.6 170.8 129.8 172.6 128.1C174.3 126.4 176.1 124.7 177.9 123C178.7 122.1 182.6 119.1 183.4 118.2C185.3 116.7 187.2 115.2 189.2 113.7C191.1 112.2 193.1 110.8 195.2 109.4C197.2 108 199.2 106.7 201.3 105.4C202.3 104.7 206.6 102.4 207.6 101.7C208.6 101 213 98.9 214.1 98.3C216.3 97.2 218.5 96.2 220.7 95.2C222.9 94.2 225.2 93.2 227.4 92.4C228.5 91.9 233.1 90.3 234.3 89.9C234.5 89.8 234.8 89.7 235 89.7C236.6 89.2 238.2 88.7 239.8 88.2C240.3 88.1 240.7 87.9 241.2 87.8C242.4 87.5 243.5 87.1 244.7 86.8L248.2 85.9L249.5 85.6L251.7 85.1L253.5 84.7C253.7 84.7 254.3 84.5 254.4 84.5C254.7 84.4 255 84.4 255.3 84.3C257.7 83.9 260.1 83.5 262.5 83.1C263.7 82.9 264.9 82.8 266.1 82.6C266.7 82.5 269.1 82.3 269.7 82.2C270.3 82.1 272.7 81.9 273.3 81.9C273.6 81.9 273.9 81.9 274.2 81.8C274.6 81.8 276.3 81.7 276.7 81.7C276.8 81.7 276.8 81.7 276.9 81.7C277.7 81.7 278.4 81.7 279.2 81.6C280 81.6 283.3 81.5 284.2 81.5C288.3 81.6 292.3 81.6 296.4 81.9C296.8 81.9 299.1 82.1 299.5 82.1C300 82.1 300.5 82.2 301 82.2C301.2 82.2 302.3 82.4 302.5 82.4C303.3 82.5 307.6 83 308.4 83.1C310.4 83.4 312.4 83.8 314.4 84.1C315.4 84.3 316.4 84.4 317.5 84.7C317.9 84.8 320 85.3 320.4 85.4C324.2 86.2 327.9 87.3 331.5 88.4C331.8 88.5 332.1 88.6 332.4 88.7C335.7 89.8 339.1 90.9 342.3 92.2C342.9 92.4 343.5 92.7 344.1 92.9C344.5 93.1 346.6 93.9 347 94.1C348 94.5 348.9 94.9 349.8 95.3C351.7 96.2 353.6 97 355.4 97.9C357.2 98.8 359.1 99.8 360.9 100.8C361.5 101.1 362.2 101.5 362.8 101.9C363.1 102 363.3 102.2 363.6 102.3C364 102.5 365.9 103.6 366.3 103.9C367.2 104.4 368.1 104.9 368.9 105.5C369.3 105.7 371.1 106.9 371.5 107.2C373.2 108.3 374.9 109.4 376.6 110.7C378.3 111.9 379.9 113.1 381.5 114.3C382.1 114.8 385.5 117.4 386 118C391.4 122.6 396.5 127.4 401.2 132.6L401.3 132.7C401.6 133 401.6 133.6 401.2 133.9C400.9 134.2 400.4 134.2 400.1 133.9C394.5 128.8 388.5 124 382.2 119.7C381.6 119.3 378.1 117 377.4 116.6C375.8 115.6 374.1 114.6 372.5 113.7C370.9 112.7 369.2 111.8 367.5 110.9C367.2 110.7 365.3 109.7 365 109.6C364.2 109.2 363.3 108.8 362.4 108.3C362.1 108.1 360.2 107.2 359.8 107.1C358.9 106.7 358.1 106.3 357.2 105.9C356.5 105.6 352.6 104 351.9 103.7C350.1 103 348.3 102.3 346.6 101.7C345.7 101.4 344.8 101 343.9 100.7C343.5 100.6 341.5 99.9 341.2 99.8C337.6 98.6 333.9 97.7 330.2 96.7C326.4 95.9 322.7 95 318.9 94.4C318.5 94.3 316.5 94 316.1 93.9C315.2 93.7 314.2 93.6 313.3 93.5C311.4 93.3 309.5 93 307.6 92.9C306.9 92.8 302.7 92.5 301.9 92.5C301.7 92.5 300.7 92.4 300.5 92.4C300 92.4 299.6 92.4 299.1 92.4C298.7 92.4 296.6 92.3 296.3 92.3C292.5 92.2 288.7 92.3 284.9 92.4C283 92.5 281.1 92.7 279.2 92.8C278.3 92.9 277.3 92.9 276.4 93C276 93 273.9 93.3 273.6 93.3C266.1 94.2 258.6 95.7 251.3 97.7C249.5 98.2 247.6 98.7 245.8 99.3C245.1 99.5 241.1 100.9 240.4 101.1C238.6 101.7 236.8 102.4 235.1 103.1C233.3 103.8 231.5 104.5 229.7 105.3C215.8 111.4 202.8 119.5 191.2 129.4C179.6 139.2 169.4 150.8 161.1 163.5C160.1 165.1 159 166.7 158.1 168.3C157.7 168.9 155.6 172.6 155.3 173.2C155.2 173.4 154.7 174.3 154.6 174.4C154.4 174.8 154.2 175.2 153.9 175.7C153.7 176 152.8 177.9 152.6 178.2C152.4 178.5 151.5 180.4 151.3 180.7C150.9 181.5 150.5 182.4 150.1 183.3C149.8 184 148.1 187.8 147.8 188.5C147.5 189.2 146 193.1 145.7 193.8C145 195.6 144.4 197.4 143.8 199.2C143.2 201 142.6 202.8 142.1 204.7L140.6 210.2L139.3 215.7C139 217 138.7 218.3 138.5 219.6C138.4 220.3 137.9 222.8 137.8 223.5C137.7 223.9 137.4 225.9 137.4 226.3C137.4 226.5 137.2 227.5 137.2 227.7C137.1 228.2 137.1 228.6 137 229.1C136.9 229.8 136.4 234 136.4 234.7C136.3 235.6 136.2 236.6 136.2 237.5C136.2 237.9 136 240 136 240.3C136 241.1 135.8 243.6 135.8 244.4C135.8 245.3 135.8 246.3 135.8 247.2C135.8 247.9 135.8 252.1 135.8 252.8C135.8 253.5 136 257.7 136 258.4C136 259.3 136.1 260.3 136.2 261.2C136.3 262 136.5 264.5 136.6 265.3C136.7 266 137 268.5 137.1 269.2C137.3 270.5 137.4 271.8 137.7 273.1L138.6 278.7C138.6 279 138.8 279.8 138.9 280.1L139.5 282.6C139.6 282.9 140 285 140.1 285.3C140.2 285.6 140.6 287.7 140.7 288C140.9 288.9 141.2 289.8 141.4 290.7C141.6 291.4 142.7 295.4 142.9 296C143.2 296.7 144.4 300.6 144.6 301.3C147.6 310.1 151.5 318.6 156 326.7C158.7 331.5 161.7 336.2 164.9 340.7C173.5 352.8 183.8 363.7 195.4 372.9C204.2 379.9 213.7 386 223.8 390.9C227 392.5 230.3 394 233.6 395.3C235.3 396 237 396.7 238.8 397.3C240.5 397.9 242.3 398.6 244 399.1C244.7 399.3 248.6 400.6 249.3 400.8C250 401 254 402.1 254.7 402.2C261.9 404 269.2 405.3 276.6 406.1C276.9 406.1 279 406.4 279.4 406.4C280.3 406.5 281.3 406.5 282.2 406.6C284.1 406.7 285.9 406.8 287.8 406.9C291.5 407 295.2 407.1 298.9 406.9C299.2 406.9 301.3 406.8 301.7 406.8C302.2 406.8 302.6 406.8 303.1 406.7C303.3 406.7 304.3 406.6 304.5 406.6C305.2 406.5 309.4 406.2 310 406.1C311.9 405.9 313.9 405.6 315.8 405.4C316.7 405.3 317.6 405.2 318.5 405C318.8 404.9 320.9 404.6 321.2 404.5C324.9 403.9 328.5 403.1 332.1 402.2C335.7 401.2 339.3 400.3 342.8 399.1C343.1 399 345.1 398.3 345.4 398.2C346.3 397.9 347.1 397.6 348 397.2C349.7 396.5 351.5 395.9 353.2 395.2C353.8 394.9 357.7 393.3 358.3 393C359.2 392.6 360 392.2 360.8 391.8C361.1 391.6 363 390.7 363.3 390.6C364.1 390.2 365 389.8 365.8 389.4C366.1 389.2 367.9 388.3 368.3 388.1C369.9 387.2 371.6 386.4 373.2 385.4C374.8 384.4 376.4 383.5 378 382.5C378.6 382.1 382.1 379.8 382.6 379.4C388.7 375.2 394.6 370.6 400.1 365.6C400.3 365.4 400.6 365.3 400.8 365.4C401 365.5 401.1 365.6 401.1 365.7C401.1 365.9 401.1 366.1 401 366.4C400.9 366.9 400.6 367.4 400.2 367.9L400.1 368C395.8 372.7 391.1 377.1 386.3 381.2C385.8 381.7 382.4 384.3 381.9 384.8C380.3 386 378.7 387.2 377 388.4C375.4 389.6 373.7 390.7 372 391.8C371.7 392.1 369.8 393.2 369.5 393.5C368.6 394.1 367.8 394.6 366.9 395.1C365.6 395.9 364.3 396.7 363 397.4C357.3 400.7 351.2 403.5 345 406C344.1 406.4 343.1 406.8 342.2 407.1C339.3 408.2 336.4 409.2 333.5 410.1C332.7 410.3 332 410.6 331.2 410.8C328 411.7 324.8 412.6 321.6 413.3C321.4 413.4 320.1 413.6 319.9 413.7C319.7 413.7 318.8 414 318.6 414C317.6 414.2 316.6 414.4 315.6 414.6C313.6 415 311.5 415.3 309.5 415.6C309.3 415.6 308.5 415.7 308.4 415.8C307.7 415.9 304.1 416.3 303.4 416.4C303.2 416.4 302.1 416.6 301.9 416.6C301.4 416.7 300.9 416.7 300.4 416.7C300 416.8 297.7 416.9 297.3 416.9C297.1 416.9 296.9 416.9 296.7 416.9C292.8 417.3 288.8 417.2 284.9 417.3C283.7 417.3 280 417.2 278.8 417.1C277.8 417.1 276.8 417 275.7 417L272.6 416.8C265.5 416.4 258.4 415.2 251.4 413.7C249.5 413.3 247.6 412.9 245.7 412.4C243.5 411.8 241.3 411.2 239.1 410.6C238.1 410.3 233.6 408.8 232.6 408.5C232 408.3 231.3 408.1 230.7 407.8C229.2 407.3 227.7 406.7 226.2 406.1C224.1 405.3 222 404.4 219.9 403.5C218.9 403 214.6 401.1 213.7 400.6C212.8 400.1 208.5 398 207.6 397.4C205.6 396.3 203.6 395.2 201.6 394C199.6 392.8 197.7 391.6 195.8 390.3C194.9 389.7 191 387.1 190.1 386.4C189.3 385.7 185.4 382.9 184.6 382.2C182.8 380.8 181 379.3 179.3 377.8C177.6 376.3 175.8 374.8 174.2 373.2C173.5 372.4 169.9 369.2 169.2 368.4C168.5 367.6 165.1 364.2 164.5 363.4C162.9 361.7 161.5 359.9 160 358.2C158.8 356.8 157.5 355.4 156.4 353.9C155.2 352.4 154.1 351 152.9 349.5C152.6 348.9 149.9 345.5 149.6 344.9C148.5 343.4 147.5 341.8 146.5 340.2C146.3 339.9 145.1 338.1 145 337.8C144.5 337 144 336.2 143.5 335.4C143.3 335 143 334.6 142.8 334.2C142.1 333 141.4 331.8 140.7 330.6C140.4 330 138.3 326.2 138 325.6C137.9 325.4 137.4 324.5 137.3 324.3C137.1 323.9 136.9 323.5 136.7 323C136.6 322.7 135.6 320.8 135.5 320.4C134.7 318.7 133.9 317 133.2 315.2C132.5 313.5 131.7 311.7 131 310C130.9 309.7 130.1 307.6 130 307.3C129.9 307 129.1 305 129 304.7C128.5 303.3 128 301.8 127.5 300.3C127.4 300.1 127.3 299.5 127.2 299.3C126.8 298.1 125.9 295 125.6 293.9L125.4 293.2C125.3 292.6 124.3 289 124.1 288.4C124 288.1 123.6 286.2 123.6 286C123.5 285.6 123 283.3 122.9 282.9C122.7 282 122.5 281.1 122.3 280.1C122.3 279.9 122.1 278.8 122.1 278.7C122.1 278.5 121.9 277.5 121.9 277.3C121.9 277 121.5 274.8 121.4 274.5C121.4 274.3 121.2 273.3 121.2 273.1C121.1 272.6 121.1 272.2 121 271.7C120.9 271 120.4 266.7 120.3 266.1C120.2 265.2 120.1 264.2 120 263.3C120 263 119.8 260.8 119.8 260.5C119.8 260.2 119.6 258 119.6 257.7C119.5 256.8 119.5 255.8 119.5 254.9C119.5 254.2 119.4 249.9 119.4 249.2C119.4 248.6 119.5 244.3 119.5 243.8C119.5 242.9 119.5 242 119.6 241.1C119.6 240.8 119.8 238.7 119.8 238.4C119.8 238.1 120 236 120 235.7C120.1 234.8 120.1 233.9 120.2 233C120.2 232.4 120.8 228.2 120.8 227.6C120.9 227.2 120.9 226.7 121 226.3C121 226.2 121.2 225.1 121.2 225C121.2 224.7 121.6 222.6 121.6 222.3C121.6 222 122 219.9 122 219.6C122.1 218.7 122.3 217.8 122.5 216.9C122.6 216.3 123.5 212.2 123.6 211.6C123.7 211.3 124.2 209.3 124.3 209C124.4 208.7 124.9 206.6 125 206.4C125.4 204.6 126 202.9 126.5 201.2C126.9 200 127.7 197.2 128.2 196L129.1 193.5C129.2 193.2 130 191.2 130 190.9C130.7 189.2 131.4 187.6 132 185.9C134.8 179.3 138 172.7 141.7 166.6C143.5 163.5 145.4 160.5 147.5 157.5C152.9 149.2 159.8 140.9 167.5 133.4Z" fill="#EC7777"/>
<path d="M179.4 159.3C180.8 157.5 182.3 155.8 183.8 154.2C185.3 152.5 186.8 150.9 188.4 149.3C189.5 148.1 192.1 145.8 193.2 144.6C194.9 143.1 196.5 141.6 198.3 140.2C200 138.7 201.8 137.4 203.6 136C205.4 134.7 207.2 133.3 209.1 132.1C210.4 131.1 213.4 129.4 214.7 128.5C216.1 127.6 219.1 126 220.5 125.2C222.5 124.1 224.5 123.1 226.5 122.2C228.5 121.2 230.5 120.3 232.6 119.5C234.1 118.8 237.3 117.7 238.8 117.1C239 117 239.2 116.9 239.4 116.9C240.8 116.4 242.3 115.9 243.8 115.4C244.2 115.3 244.7 115.1 245.1 115C246.1 114.7 247.2 114.3 248.3 114.1L251.5 113.3L252.7 113L254.8 112.5L256.4 112.1C256.5 112.1 257.2 111.9 257.3 111.9C257.6 111.8 257.8 111.8 258.1 111.7C260.3 111.3 262.5 110.9 264.7 110.6C265.8 110.4 266.9 110.3 268 110.2C268.8 110.1 270.5 109.9 271.3 109.9C272.1 109.8 273.8 109.7 274.6 109.6C274.9 109.6 275.2 109.6 275.5 109.6C275.7 109.6 277.6 109.5 277.8 109.5C277.9 109.5 277.9 109.5 278 109.5C278.7 109.5 279.4 109.5 280.1 109.5C280.5 109.5 284.2 109.4 284.6 109.4C288 109.5 291.4 109.5 294.8 109.9C295.4 109.9 296.9 110.1 297.4 110.1C297.8 110.1 298.3 110.2 298.7 110.2C299 110.2 299.7 110.3 300 110.4C301 110.5 303.8 110.9 304.9 111C306.6 111.3 308.2 111.6 309.9 111.9C310.8 112.1 311.6 112.2 312.5 112.4C313 112.5 314.4 112.8 314.8 113C318 113.7 321.1 114.7 324.3 115.6C324.6 115.7 324.8 115.8 325.1 115.8C327.9 116.8 330.8 117.7 333.5 118.9C334 119.1 334.5 119.3 335 119.5C335.5 119.7 336.9 120.3 337.4 120.5C338.2 120.8 339 121.2 339.8 121.6C341.4 122.3 343 123.1 344.5 123.9C346.1 124.7 347.6 125.6 349.1 126.4C349.6 126.7 350.2 127 350.7 127.4C350.9 127.5 351.1 127.7 351.3 127.8C351.8 128.1 353.1 128.9 353.5 129.2C354.2 129.7 355 130.1 355.7 130.6C356.2 130.9 357.4 131.7 357.9 132.1C359.3 133.1 360.8 134.1 362.1 135.1C363.5 136.1 364.9 137.2 366.2 138.3C366.9 139 369.1 140.7 369.8 141.4C373.9 145.1 377.8 148.9 381.4 153L381.5 153.1C381.8 153.5 381.7 154 381.4 154.3C381.1 154.6 380.6 154.5 380.3 154.3C375.7 150.1 370.7 146.1 365.5 142.6C364.7 142 362.4 140.5 361.6 140C360.3 139.2 358.9 138.4 357.6 137.6C356.2 136.8 354.9 136.1 353.5 135.3C353.1 135.1 351.9 134.4 351.4 134.2C350.7 133.8 350 133.5 349.3 133.2C348.9 133 347.6 132.4 347.2 132.2C346.5 131.9 345.8 131.5 345.1 131.2C344.2 130.8 341.7 129.7 340.8 129.4C339.3 128.8 337.9 128.3 336.4 127.7C335.7 127.4 334.9 127.2 334.2 126.9C333.7 126.7 332.4 126.3 332 126.2C329 125.2 326 124.4 322.9 123.7C319.8 123 316.6 122.3 313.4 121.8C312.9 121.7 311.6 121.5 311.1 121.4C310.3 121.3 309.5 121.2 308.8 121.1C307.2 120.9 305.7 120.7 304.1 120.6C303.1 120.5 300.4 120.3 299.4 120.3C299.2 120.3 298.5 120.2 298.2 120.2C297.8 120.2 297.4 120.2 297 120.2C296.5 120.2 295.1 120.1 294.6 120.1C291.5 120 288.3 120.1 285.2 120.2C283.6 120.3 282.1 120.4 280.5 120.5C279.7 120.6 278.9 120.6 278.2 120.7C277.7 120.8 276.4 120.9 275.9 121C269.7 121.7 263.5 123 257.5 124.6C256 125 254.5 125.5 253 125.9C252.1 126.2 249.5 127.1 248.5 127.4C247 127.9 245.6 128.5 244.1 129.1C242.6 129.7 241.1 130.3 239.6 131C228.1 136 217.4 142.8 207.8 150.9C198.2 159.1 189.7 168.6 182.9 179.1C182.1 180.4 181.2 181.7 180.4 183.1C179.9 183.9 178.5 186.3 178.1 187.2C178 187.4 177.6 188 177.5 188.2C177.3 188.5 177.1 188.9 177 189.2C176.8 189.6 176.1 190.8 175.9 191.3C175.7 191.8 175.1 193 174.8 193.4C174.4 194.1 174.1 194.8 173.8 195.5C173.4 196.4 172.3 198.9 171.9 199.8C171.5 200.7 170.5 203.2 170.2 204.2C169.6 205.7 169.1 207.1 168.6 208.6C168.1 210.1 167.6 211.6 167.1 213.2L165.8 217.7L164.7 222.3C164.4 223.5 164.2 224.8 163.9 226.1C163.7 227.1 163.4 228.9 163.3 229.9C163.2 230.4 163 231.7 163 232.2C163 232.4 162.9 233.1 162.8 233.4C162.7 233.8 162.7 234.2 162.7 234.6C162.6 235.6 162.3 238.3 162.2 239.2C162.1 240 162.1 240.7 162 241.5C162 242 161.9 243.3 161.9 243.8C161.9 244.8 161.8 246.8 161.8 247.8C161.8 248.6 161.8 249.3 161.8 250.1C161.8 251.1 161.8 253.8 161.9 254.7C161.9 255.7 162.1 258.4 162.1 259.3C162.1 260.1 162.2 260.8 162.3 261.6C162.4 262.7 162.6 264.6 162.8 265.7C162.9 266.7 163.2 268.5 163.3 269.5C163.5 270.8 163.7 272 164 273.3L164.9 277.9C164.9 278 165.1 278.9 165.2 279L165.9 281.6C166 282 166.3 283.3 166.5 283.8C166.6 284.2 166.9 285.5 167.1 286C167.3 286.7 167.5 287.4 167.7 288.2C168 289.1 168.7 291.6 169.1 292.5C169.4 293.4 170.3 295.9 170.6 296.8C173.3 303.9 176.6 310.7 180.4 317.2C182.7 321.1 185.2 324.8 187.9 328.4C195.1 338.1 203.7 346.7 213.3 354.1C220.6 359.7 228.4 364.5 236.7 368.4C239.3 369.7 242 370.8 244.7 371.9C246.1 372.5 247.5 373 248.9 373.5C250.3 374 251.7 374.5 253.2 374.9C254.1 375.2 256.6 376 257.5 376.2C258.4 376.4 261 377.1 261.9 377.3C267.8 378.7 273.7 379.7 279.8 380.2C280.3 380.2 281.6 380.4 282.1 380.4C282.9 380.5 283.6 380.5 284.4 380.5C285.9 380.6 287.4 380.7 288.9 380.7C291.9 380.7 294.9 380.8 298 380.6C298.5 380.6 299.8 380.5 300.3 380.5C300.7 380.5 301.1 380.5 301.4 380.4C301.6 380.4 302.3 380.3 302.5 380.3C303.4 380.2 306.1 380 307 379.9C308.6 379.7 310.2 379.5 311.8 379.2C312.5 379.1 313.3 379 314 378.9C314.5 378.8 315.8 378.6 316.2 378.5C319.2 378 322.1 377.3 325 376.6C327.9 375.8 330.8 375 333.7 374C334.1 373.8 335.4 373.4 335.8 373.3C336.5 373.1 337.2 372.8 337.9 372.5C339.3 372 340.7 371.4 342.1 370.9C343 370.5 345.4 369.5 346.2 369.1C346.9 368.8 347.6 368.5 348.2 368.1C348.6 367.9 349.8 367.3 350.2 367.1C350.9 366.8 351.6 366.4 352.2 366.1C352.6 365.9 353.8 365.3 354.2 365C355.5 364.3 356.9 363.6 358.1 362.8C359.4 362 360.7 361.3 362 360.5C362.8 360 365 358.5 365.8 358C370.8 354.6 375.5 350.8 380 346.8C380.2 346.6 380.4 346.5 380.6 346.5C380.8 346.5 380.9 346.5 381 346.6C381.1 346.7 381.2 346.8 381.3 347.1C381.4 347.5 381.3 348 380.9 348.4L380.8 348.5C377.4 352.4 373.7 356.1 369.8 359.5C369.1 360.2 367 361.9 366.3 362.5C365 363.6 363.6 364.6 362.3 365.7C360.9 366.7 359.5 367.7 358.1 368.7C357.6 369 356.4 369.8 356 370.2C355.3 370.7 354.6 371.1 353.8 371.6C352.7 372.3 351.6 373 350.6 373.6C345.8 376.5 340.7 379 335.5 381.2C334.7 381.5 333.9 381.9 333.1 382.2C330.7 383.2 328.2 384 325.8 384.9C325.2 385.1 324.5 385.3 323.9 385.5C321.2 386.3 318.5 387.1 315.8 387.8C315.5 387.9 314.7 388.1 314.3 388.1C314.1 388.2 313.5 388.3 313.2 388.4C312.4 388.6 311.5 388.8 310.6 388.9C308.9 389.2 307.2 389.5 305.4 389.8C305.2 389.8 304.6 389.9 304.4 390C303.5 390.1 301.1 390.4 300.2 390.6C299.9 390.6 299.2 390.7 298.9 390.8C298.5 390.9 298 390.9 297.6 390.9C297 391 295.6 391.1 295 391.1C294.8 391.1 294.7 391.1 294.5 391.1C291.2 391.5 287.8 391.4 284.5 391.6C283.9 391.6 280 391.5 279.4 391.5C278.5 391.5 277.7 391.5 276.8 391.4L274.2 391.2C267.9 390.9 261.6 389.9 255.3 388.5C253.6 388.1 251.9 387.7 250.2 387.3C248.2 386.8 246.3 386.3 244.3 385.7C242.9 385.3 239.9 384.3 238.5 383.8C237.9 383.6 237.4 383.4 236.8 383.2C235.5 382.7 234.1 382.2 232.8 381.7C230.9 380.9 229.1 380.2 227.2 379.3C225.9 378.7 223 377.3 221.7 376.7C220.5 376 217.6 374.5 216.3 373.8C214.5 372.8 212.8 371.7 211.1 370.7C209.4 369.6 207.7 368.5 206 367.3C204.9 366.4 202.2 364.6 201.1 363.7C200 362.8 197.4 360.8 196.3 359.9C194.7 358.6 193.2 357.2 191.7 355.9C190.2 354.5 188.7 353.1 187.3 351.7C186.3 350.6 184 348.4 183 347.3C182.1 346.2 179.8 343.8 178.9 342.7C177.6 341.1 176.3 339.5 175.1 337.9C174.2 336.7 173.2 335.6 172.4 334.4C171.5 333.2 170.6 332 169.8 330.8C169.4 330.1 167.8 327.9 167.3 327.1C166.5 325.9 165.7 324.6 164.9 323.3C164.7 322.9 164 321.8 163.8 321.4C163.4 320.8 163.1 320.1 162.7 319.5C162.5 319.2 162.3 318.8 162.2 318.5C161.7 317.5 161.1 316.6 160.6 315.6C160.2 314.8 158.9 312.4 158.6 311.6C158.5 311.4 158.2 310.8 158.1 310.6C157.9 310.3 157.8 309.9 157.6 309.6C157.4 309.2 156.8 308 156.7 307.6C156.1 306.2 155.5 304.9 155 303.5C154.4 302.1 153.9 300.7 153.4 299.3C153.3 298.9 152.8 297.6 152.6 297.2C152.5 296.8 152 295.5 151.9 295.1C151.5 293.9 151.1 292.8 150.8 291.6C150.8 291.5 150.6 290.9 150.6 290.8C150.4 290.2 149.6 287.1 149.4 286.5L149.3 285.9C149.1 285.2 148.5 282.9 148.4 282.1C148.3 281.7 148.1 280.5 148 280.2C147.9 279.7 147.6 278.2 147.5 277.7C147.4 277 147.2 276.2 147.1 275.5C147.1 275.3 147 274.6 146.9 274.4C146.9 274.2 146.8 273.5 146.7 273.3C146.6 272.9 146.4 271.5 146.4 271.1C146.4 270.9 146.3 270.2 146.2 270C146.1 269.6 146.1 269.3 146.1 268.9C146 268 145.7 265.3 145.6 264.4C145.5 263.7 145.5 262.9 145.4 262.2C145.4 261.8 145.3 260.4 145.2 260C145.2 259.6 145.1 258.2 145.1 257.8C145.1 257.1 145 256.3 145 255.6C145 254.7 144.9 252 144.9 251.1C144.9 250.3 145 247.7 145 246.9C145 246.2 145 245.5 145.1 244.8C145.1 244.4 145.2 243.1 145.2 242.7C145.2 242.3 145.3 241 145.3 240.6C145.3 239.9 145.4 239.2 145.5 238.5C145.6 237.7 145.9 235.1 145.9 234.4C145.9 234.1 146 233.7 146 233.4C146 233.2 146.1 232.6 146.1 232.4C146.1 232 146.4 230.7 146.4 230.3C146.4 229.9 146.7 228.6 146.7 228.2C146.8 227.5 146.9 226.8 147.1 226.2C147.2 225.4 147.8 222.9 147.9 222.1C148 221.7 148.3 220.5 148.4 220.1C148.5 219.7 148.8 218.4 148.9 218.1C149.2 216.8 149.6 215.4 150 214.1C150.2 213.5 150.9 210.7 151.2 210.1L151.8 208.1C151.9 207.7 152.4 206.5 152.5 206.1C153 204.8 153.4 203.5 153.9 202.2C155.9 197.1 158.1 192 160.7 187.1C162 184.7 163.3 182.3 164.8 179.9C169.1 172 173.9 165.3 179.4 159.3Z" fill="#EC7777"/>
<path d="M361.9 327.1C358.7 331.1 355.1 334.8 351.2 338.4C347.3 341.9 343 345 338.6 347.8C334.2 350.7 329.4 353.1 324.5 355.3C322.1 356.4 319.5 357.3 317 358.2C314.4 359 311.8 359.9 309.2 360.5C306.6 361.2 303.9 361.7 301.2 362.2C298.5 362.6 295.8 363 293.1 363.3C290.4 363.6 287.6 363.7 284.9 363.8H280.8C280.1 363.8 279.4 363.8 278.7 363.8L276.6 363.7C271.1 363.5 265.5 362.6 260.1 361.5C254.6 360.4 249.2 358.7 244 356.7C222.9 348.7 204.3 334 191.4 315.1C188.1 310.4 185.3 305.4 182.8 300.2C180.2 295.1 178.2 289.7 176.5 284.2C176.1 282.8 175.7 281.4 175.3 280.1L174.3 275.9C173.9 274.5 173.7 273.1 173.4 271.7C173.2 270.3 172.8 268.9 172.7 267.4C171.8 261.7 171.5 256 171.4 250.2C171.5 244.5 171.9 238.7 172.7 233C172.9 231.6 173.2 230.2 173.4 228.7C173.7 227.3 173.9 225.9 174.3 224.5L175.3 220.3C175.7 218.9 176.1 217.5 176.5 216.2C178.3 210.7 180.3 205.3 182.8 200.2C185.3 195 188.1 190 191.4 185.3C204.3 166.4 223 151.7 244 143.7C245.3 143.2 246.6 142.7 248 142.3C249.3 141.9 250.6 141.4 252 141L256 139.9L260.1 139C265.6 137.8 271.1 137 276.6 136.8L278.7 136.7C279.4 136.7 280.1 136.7 280.8 136.7H284.9C287.7 136.8 290.4 136.8 293.1 137.2C295.8 137.4 298.5 137.9 301.2 138.3C302.5 138.5 303.9 138.8 305.2 139.1C306.5 139.3 307.9 139.7 309.2 140C311.8 140.6 314.4 141.5 317 142.3C319.5 143.2 322.1 144.1 324.5 145.2C329.4 147.3 334.2 149.7 338.6 152.6C343 155.5 347.3 158.6 351.2 162C355 165.5 358.7 169.2 361.9 173.3L362 173.4C362.3 173.8 362.2 174.3 361.9 174.6C361.6 174.9 361.1 174.8 360.8 174.6C346 161.1 327.4 152 307.7 148.9C288.1 145.7 267.5 148.1 249.3 156.2C231.1 164.2 215.3 177.6 204.5 194.2C199.1 202.5 194.9 211.6 192.1 221.1L191.1 224.7L190.3 228.3C190 229.5 189.8 230.7 189.6 231.9C189.4 233.1 189.1 234.3 189 235.6C188.3 240.5 188 245.5 188 250.4C188.1 255.4 188.3 260.3 189 265.2C189.1 266.4 189.4 267.6 189.6 268.9C189.8 270.1 190 271.3 190.3 272.5L191.1 276.1L192.1 279.7C194.9 289.2 199.1 298.3 204.5 306.6C215.3 323.2 231.1 336.7 249.3 344.6C267.5 352.6 288 355.1 307.7 351.9C327.4 348.8 346.1 339.7 360.8 326.2C361.1 325.9 361.7 325.9 362 326.3C362.2 326.2 362.2 326.7 361.9 327.1Z" fill="#EC7777"/>
</svg>
